<?xml version="1.0" encoding="UTF-8" standalone="no"?>
<svg
   width="576pt"
   height="288pt"
   viewBox="0 0 576 288"
   version="1.1"
   id="svg1053"
   sodipodi:docname="behav_learning-stage_subp-1.svg"
   inkscape:version="1.4.2 (ebf0e940, 2025-05-08)"
   xmlns:inkscape="http://www.inkscape.org/namespaces/inkscape"
   xmlns:sodipodi="http://sodipodi.sourceforge.net/DTD/sodipodi-0.dtd"
   xmlns:xlink="http://www.w3.org/1999/xlink"
   xmlns="http://www.w3.org/2000/svg"
   xmlns:svg="http://www.w3.org/2000/svg"
   xmlns:rdf="http://www.w3.org/1999/02/22-rdf-syntax-ns#"
   xmlns:cc="http://creativecommons.org/ns#"
   xmlns:dc="http://purl.org/dc/elements/1.1/">
  <sodipodi:namedview
     id="namedview1053"
     pagecolor="#ffffff"
     bordercolor="#000000"
     borderopacity="0.25"
     inkscape:showpageshadow="2"
     inkscape:pageopacity="0.0"
     inkscape:pagecheckerboard="0"
     inkscape:deskcolor="#d1d1d1"
     inkscape:document-units="pt"
     inkscape:zoom="1.3408752"
     inkscape:cx="296.82106"
     inkscape:cy="201.73391"
     inkscape:window-width="2560"
     inkscape:window-height="1382"
     inkscape:window-x="0"
     inkscape:window-y="30"
     inkscape:window-maximized="1"
     inkscape:current-layer="axes_1" />
  <metadata
     id="metadata1">
    <rdf:RDF>
      <cc:Work>
        <dc:type
           rdf:resource="http://purl.org/dc/dcmitype/StillImage" />
        <dc:date>2025-12-03T20:48:34.921714</dc:date>
        <dc:format>image/svg+xml</dc:format>
        <dc:creator>
          <cc:Agent>
            <dc:title>Matplotlib v3.9.4, https://matplotlib.org/</dc:title>
          </cc:Agent>
        </dc:creator>
      </cc:Work>
    </rdf:RDF>
  </metadata>
  <defs
     id="defs1">
    <style
       type="text/css"
       id="style1">*{stroke-linejoin: round; stroke-linecap: butt}</style>
  </defs>
  <g
     id="figure_1">
    <g
       id="patch_1">
      <path
         d="M 0 288  L 576 288  L 576 0  L 0 0  L 0 288  z "
         style="fill: none"
         id="path1" />
    </g>
    <g
       id="axes_1">
      <g
         id="patch_2">
        <path
           d="M 47.81 246.04  L 229.59 246.04  L 229.59 25.92  L 47.81 25.92  z "
           style="fill: #ffffff"
           id="path2" />
      </g>
      <g
         id="PolyCollection_1" />
      <g
         id="PolyCollection_2" />
      <g
         id="PolyCollection_3" />
      <g
         id="PolyCollection_4" />
      <g
         id="PolyCollection_5" />
      <g
         id="PolyCollection_6" />
      <g
         id="PolyCollection_7" />
      <g
         id="PolyCollection_8" />
      <g
         id="PolyCollection_9" />
      <g
         id="PolyCollection_10" />
      <g
         id="PolyCollection_11" />
      <g
         id="PolyCollection_12" />
      <g
         id="matplotlib.axis_1">
        <g
           id="xtick_1">
          <g
             id="line2d_1">
            <defs
               id="defs2">
              <path
                 id="m9641887242"
                 d="M 0 0  L 0 3.5  "
                 style="stroke: #000000; stroke-width: 0.8" />
            </defs>
            <g
               id="g2">
              <use
                 xlink:href="#m9641887242"
                 x="79.680519"
                 y="246.04"
                 style="stroke: #000000; stroke-width: 0.8"
                 id="use2" />
            </g>
          </g>
          <g
             id="text_1">
            <!-- Early -->
            <g
               transform="translate(67.053176 260.638438) scale(0.1 -0.1)"
               id="g7">
              <defs
                 id="defs3">
                <path
                   id="DejaVuSans-45"
                   d="M 628 4666  L 3578 4666  L 3578 4134  L 1259 4134  L 1259 2753  L 3481 2753  L 3481 2222  L 1259 2222  L 1259 531  L 3634 531  L 3634 0  L 628 0  L 628 4666  z "
                   transform="scale(0.015625)" />
                <path
                   id="DejaVuSans-61"
                   d="M 2194 1759  Q 1497 1759 1228 1600  Q 959 1441 959 1056  Q 959 750 1161 570  Q 1363 391 1709 391  Q 2188 391 2477 730  Q 2766 1069 2766 1631  L 2766 1759  L 2194 1759  z M 3341 1997  L 3341 0  L 2766 0  L 2766 531  Q 2569 213 2275 61  Q 1981 -91 1556 -91  Q 1019 -91 701 211  Q 384 513 384 1019  Q 384 1609 779 1909  Q 1175 2209 1959 2209  L 2766 2209  L 2766 2266  Q 2766 2663 2505 2880  Q 2244 3097 1772 3097  Q 1472 3097 1187 3025  Q 903 2953 641 2809  L 641 3341  Q 956 3463 1253 3523  Q 1550 3584 1831 3584  Q 2591 3584 2966 3190  Q 3341 2797 3341 1997  z "
                   transform="scale(0.015625)" />
                <path
                   id="DejaVuSans-72"
                   d="M 2631 2963  Q 2534 3019 2420 3045  Q 2306 3072 2169 3072  Q 1681 3072 1420 2755  Q 1159 2438 1159 1844  L 1159 0  L 581 0  L 581 3500  L 1159 3500  L 1159 2956  Q 1341 3275 1631 3429  Q 1922 3584 2338 3584  Q 2397 3584 2469 3576  Q 2541 3569 2628 3553  L 2631 2963  z "
                   transform="scale(0.015625)" />
                <path
                   id="DejaVuSans-6c"
                   d="M 603 4863  L 1178 4863  L 1178 0  L 603 0  L 603 4863  z "
                   transform="scale(0.015625)" />
                <path
                   id="DejaVuSans-79"
                   d="M 2059 -325  Q 1816 -950 1584 -1140  Q 1353 -1331 966 -1331  L 506 -1331  L 506 -850  L 844 -850  Q 1081 -850 1212 -737  Q 1344 -625 1503 -206  L 1606 56  L 191 3500  L 800 3500  L 1894 763  L 2988 3500  L 3597 3500  L 2059 -325  z "
                   transform="scale(0.015625)" />
              </defs>
              <use
                 xlink:href="#DejaVuSans-45"
                 id="use3" />
              <use
                 xlink:href="#DejaVuSans-61"
                 x="63.183594"
                 id="use4" />
              <use
                 xlink:href="#DejaVuSans-72"
                 x="124.462891"
                 id="use5" />
              <use
                 xlink:href="#DejaVuSans-6c"
                 x="165.576172"
                 id="use6" />
              <use
                 xlink:href="#DejaVuSans-79"
                 x="193.359375"
                 id="use7" />
            </g>
          </g>
        </g>
        <g
           id="xtick_2">
          <g
             id="line2d_2">
            <g
               id="g8">
              <use
                 xlink:href="#m9641887242"
                 x="138.7"
                 y="246.04"
                 style="stroke: #000000; stroke-width: 0.8"
                 id="use8" />
            </g>
          </g>
          <g
             id="text_2">
            <!-- Middle -->
            <g
               transform="translate(122.182812 260.638438) scale(0.1 -0.1)"
               id="g14">
              <defs
                 id="defs8">
                <path
                   id="DejaVuSans-4d"
                   d="M 628 4666  L 1569 4666  L 2759 1491  L 3956 4666  L 4897 4666  L 4897 0  L 4281 0  L 4281 4097  L 3078 897  L 2444 897  L 1241 4097  L 1241 0  L 628 0  L 628 4666  z "
                   transform="scale(0.015625)" />
                <path
                   id="DejaVuSans-69"
                   d="M 603 3500  L 1178 3500  L 1178 0  L 603 0  L 603 3500  z M 603 4863  L 1178 4863  L 1178 4134  L 603 4134  L 603 4863  z "
                   transform="scale(0.015625)" />
                <path
                   id="DejaVuSans-64"
                   d="M 2906 2969  L 2906 4863  L 3481 4863  L 3481 0  L 2906 0  L 2906 525  Q 2725 213 2448 61  Q 2172 -91 1784 -91  Q 1150 -91 751 415  Q 353 922 353 1747  Q 353 2572 751 3078  Q 1150 3584 1784 3584  Q 2172 3584 2448 3432  Q 2725 3281 2906 2969  z M 947 1747  Q 947 1113 1208 752  Q 1469 391 1925 391  Q 2381 391 2643 752  Q 2906 1113 2906 1747  Q 2906 2381 2643 2742  Q 2381 3103 1925 3103  Q 1469 3103 1208 2742  Q 947 2381 947 1747  z "
                   transform="scale(0.015625)" />
                <path
                   id="DejaVuSans-65"
                   d="M 3597 1894  L 3597 1613  L 953 1613  Q 991 1019 1311 708  Q 1631 397 2203 397  Q 2534 397 2845 478  Q 3156 559 3463 722  L 3463 178  Q 3153 47 2828 -22  Q 2503 -91 2169 -91  Q 1331 -91 842 396  Q 353 884 353 1716  Q 353 2575 817 3079  Q 1281 3584 2069 3584  Q 2775 3584 3186 3129  Q 3597 2675 3597 1894  z M 3022 2063  Q 3016 2534 2758 2815  Q 2500 3097 2075 3097  Q 1594 3097 1305 2825  Q 1016 2553 972 2059  L 3022 2063  z "
                   transform="scale(0.015625)" />
              </defs>
              <use
                 xlink:href="#DejaVuSans-4d"
                 id="use9" />
              <use
                 xlink:href="#DejaVuSans-69"
                 x="86.279297"
                 id="use10" />
              <use
                 xlink:href="#DejaVuSans-64"
                 x="114.0625"
                 id="use11" />
              <use
                 xlink:href="#DejaVuSans-64"
                 x="177.539062"
                 id="use12" />
              <use
                 xlink:href="#DejaVuSans-6c"
                 x="241.015625"
                 id="use13" />
              <use
                 xlink:href="#DejaVuSans-65"
                 x="268.798828"
                 id="use14" />
            </g>
          </g>
        </g>
        <g
           id="xtick_3">
          <g
             id="line2d_3">
            <g
               id="g15">
              <use
                 xlink:href="#m9641887242"
                 x="197.719481"
                 y="246.04"
                 style="stroke: #000000; stroke-width: 0.8"
                 id="use15" />
            </g>
          </g>
          <g
             id="text_3">
            <!-- Final -->
            <g
               transform="translate(186.195262 260.638438) scale(0.1 -0.1)"
               id="g20">
              <defs
                 id="defs15">
                <path
                   id="DejaVuSans-46"
                   d="M 628 4666  L 3309 4666  L 3309 4134  L 1259 4134  L 1259 2759  L 3109 2759  L 3109 2228  L 1259 2228  L 1259 0  L 628 0  L 628 4666  z "
                   transform="scale(0.015625)" />
                <path
                   id="DejaVuSans-6e"
                   d="M 3513 2113  L 3513 0  L 2938 0  L 2938 2094  Q 2938 2591 2744 2837  Q 2550 3084 2163 3084  Q 1697 3084 1428 2787  Q 1159 2491 1159 1978  L 1159 0  L 581 0  L 581 3500  L 1159 3500  L 1159 2956  Q 1366 3272 1645 3428  Q 1925 3584 2291 3584  Q 2894 3584 3203 3211  Q 3513 2838 3513 2113  z "
                   transform="scale(0.015625)" />
              </defs>
              <use
                 xlink:href="#DejaVuSans-46"
                 id="use16" />
              <use
                 xlink:href="#DejaVuSans-69"
                 x="50.269531"
                 id="use17" />
              <use
                 xlink:href="#DejaVuSans-6e"
                 x="78.052734"
                 id="use18" />
              <use
                 xlink:href="#DejaVuSans-61"
                 x="141.431641"
                 id="use19" />
              <use
                 xlink:href="#DejaVuSans-6c"
                 x="202.710938"
                 id="use20" />
            </g>
          </g>
        </g>
        <g
           id="text_4">
          <!-- Learning stage -->
          <g
             transform="translate(101.523437 274.316562) scale(0.1 -0.1)"
             id="g34">
            <defs
               id="defs20">
              <path
                 id="DejaVuSans-4c"
                 d="M 628 4666  L 1259 4666  L 1259 531  L 3531 531  L 3531 0  L 628 0  L 628 4666  z "
                 transform="scale(0.015625)" />
              <path
                 id="DejaVuSans-67"
                 d="M 2906 1791  Q 2906 2416 2648 2759  Q 2391 3103 1925 3103  Q 1463 3103 1205 2759  Q 947 2416 947 1791  Q 947 1169 1205 825  Q 1463 481 1925 481  Q 2391 481 2648 825  Q 2906 1169 2906 1791  z M 3481 434  Q 3481 -459 3084 -895  Q 2688 -1331 1869 -1331  Q 1566 -1331 1297 -1286  Q 1028 -1241 775 -1147  L 775 -588  Q 1028 -725 1275 -790  Q 1522 -856 1778 -856  Q 2344 -856 2625 -561  Q 2906 -266 2906 331  L 2906 616  Q 2728 306 2450 153  Q 2172 0 1784 0  Q 1141 0 747 490  Q 353 981 353 1791  Q 353 2603 747 3093  Q 1141 3584 1784 3584  Q 2172 3584 2450 3431  Q 2728 3278 2906 2969  L 2906 3500  L 3481 3500  L 3481 434  z "
                 transform="scale(0.015625)" />
              <path
                 id="DejaVuSans-20"
                 transform="scale(0.015625)" />
              <path
                 id="DejaVuSans-73"
                 d="M 2834 3397  L 2834 2853  Q 2591 2978 2328 3040  Q 2066 3103 1784 3103  Q 1356 3103 1142 2972  Q 928 2841 928 2578  Q 928 2378 1081 2264  Q 1234 2150 1697 2047  L 1894 2003  Q 2506 1872 2764 1633  Q 3022 1394 3022 966  Q 3022 478 2636 193  Q 2250 -91 1575 -91  Q 1294 -91 989 -36  Q 684 19 347 128  L 347 722  Q 666 556 975 473  Q 1284 391 1588 391  Q 1994 391 2212 530  Q 2431 669 2431 922  Q 2431 1156 2273 1281  Q 2116 1406 1581 1522  L 1381 1569  Q 847 1681 609 1914  Q 372 2147 372 2553  Q 372 3047 722 3315  Q 1072 3584 1716 3584  Q 2034 3584 2315 3537  Q 2597 3491 2834 3397  z "
                 transform="scale(0.015625)" />
              <path
                 id="DejaVuSans-74"
                 d="M 1172 4494  L 1172 3500  L 2356 3500  L 2356 3053  L 1172 3053  L 1172 1153  Q 1172 725 1289 603  Q 1406 481 1766 481  L 2356 481  L 2356 0  L 1766 0  Q 1100 0 847 248  Q 594 497 594 1153  L 594 3053  L 172 3053  L 172 3500  L 594 3500  L 594 4494  L 1172 4494  z "
                 transform="scale(0.015625)" />
            </defs>
            <use
               xlink:href="#DejaVuSans-4c"
               id="use21" />
            <use
               xlink:href="#DejaVuSans-65"
               x="53.962891"
               id="use22" />
            <use
               xlink:href="#DejaVuSans-61"
               x="115.486328"
               id="use23" />
            <use
               xlink:href="#DejaVuSans-72"
               x="176.765625"
               id="use24" />
            <use
               xlink:href="#DejaVuSans-6e"
               x="216.128906"
               id="use25" />
            <use
               xlink:href="#DejaVuSans-69"
               x="279.507812"
               id="use26" />
            <use
               xlink:href="#DejaVuSans-6e"
               x="307.291016"
               id="use27" />
            <use
               xlink:href="#DejaVuSans-67"
               x="370.669922"
               id="use28" />
            <use
               xlink:href="#DejaVuSans-20"
               x="434.146484"
               id="use29" />
            <use
               xlink:href="#DejaVuSans-73"
               x="465.933594"
               id="use30" />
            <use
               xlink:href="#DejaVuSans-74"
               x="518.033203"
               id="use31" />
            <use
               xlink:href="#DejaVuSans-61"
               x="557.242188"
               id="use32" />
            <use
               xlink:href="#DejaVuSans-67"
               x="618.521484"
               id="use33" />
            <use
               xlink:href="#DejaVuSans-65"
               x="681.998047"
               id="use34" />
          </g>
        </g>
      </g>
      <g
         id="matplotlib.axis_2">
        <g
           id="ytick_1">
          <g
             id="line2d_4">
            <defs
               id="defs34">
              <path
                 id="mcc65b74d3c"
                 d="M 0 0  L -3.5 0  "
                 style="stroke: #000000; stroke-width: 0.8" />
            </defs>
            <g
               id="g35">
              <use
                 xlink:href="#mcc65b74d3c"
                 x="47.81"
                 y="246.04"
                 style="stroke: #000000; stroke-width: 0.8"
                 id="use35" />
            </g>
          </g>
          <g
             id="text_5">
            <!-- 0.0 -->
            <g
               transform="translate(24.906875 249.839219) scale(0.1 -0.1)"
               id="g38">
              <defs
                 id="defs35">
                <path
                   id="DejaVuSans-30"
                   d="M 2034 4250  Q 1547 4250 1301 3770  Q 1056 3291 1056 2328  Q 1056 1369 1301 889  Q 1547 409 2034 409  Q 2525 409 2770 889  Q 3016 1369 3016 2328  Q 3016 3291 2770 3770  Q 2525 4250 2034 4250  z M 2034 4750  Q 2819 4750 3233 4129  Q 3647 3509 3647 2328  Q 3647 1150 3233 529  Q 2819 -91 2034 -91  Q 1250 -91 836 529  Q 422 1150 422 2328  Q 422 3509 836 4129  Q 1250 4750 2034 4750  z "
                   transform="scale(0.015625)" />
                <path
                   id="DejaVuSans-2e"
                   d="M 684 794  L 1344 794  L 1344 0  L 684 0  L 684 794  z "
                   transform="scale(0.015625)" />
              </defs>
              <use
                 xlink:href="#DejaVuSans-30"
                 id="use36" />
              <use
                 xlink:href="#DejaVuSans-2e"
                 x="63.623047"
                 id="use37" />
              <use
                 xlink:href="#DejaVuSans-30"
                 x="95.410156"
                 id="use38" />
            </g>
          </g>
        </g>
        <g
           id="ytick_2">
          <g
             id="line2d_5">
            <g
               id="g39">
              <use
                 xlink:href="#mcc65b74d3c"
                 x="47.81"
                 y="202.016"
                 style="stroke: #000000; stroke-width: 0.8"
                 id="use39" />
            </g>
          </g>
          <g
             id="text_6">
            <!-- 0.2 -->
            <g
               transform="translate(24.906875 205.815219) scale(0.1 -0.1)"
               id="g42">
              <defs
                 id="defs39">
                <path
                   id="DejaVuSans-32"
                   d="M 1228 531  L 3431 531  L 3431 0  L 469 0  L 469 531  Q 828 903 1448 1529  Q 2069 2156 2228 2338  Q 2531 2678 2651 2914  Q 2772 3150 2772 3378  Q 2772 3750 2511 3984  Q 2250 4219 1831 4219  Q 1534 4219 1204 4116  Q 875 4013 500 3803  L 500 4441  Q 881 4594 1212 4672  Q 1544 4750 1819 4750  Q 2544 4750 2975 4387  Q 3406 4025 3406 3419  Q 3406 3131 3298 2873  Q 3191 2616 2906 2266  Q 2828 2175 2409 1742  Q 1991 1309 1228 531  z "
                   transform="scale(0.015625)" />
              </defs>
              <use
                 xlink:href="#DejaVuSans-30"
                 id="use40" />
              <use
                 xlink:href="#DejaVuSans-2e"
                 x="63.623047"
                 id="use41" />
              <use
                 xlink:href="#DejaVuSans-32"
                 x="95.410156"
                 id="use42" />
            </g>
          </g>
        </g>
        <g
           id="ytick_3">
          <g
             id="line2d_6">
            <g
               id="g43">
              <use
                 xlink:href="#mcc65b74d3c"
                 x="47.81"
                 y="157.992"
                 style="stroke: #000000; stroke-width: 0.8"
                 id="use43" />
            </g>
          </g>
          <g
             id="text_7">
            <!-- 0.4 -->
            <g
               transform="translate(24.906875 161.791219) scale(0.1 -0.1)"
               id="g46">
              <defs
                 id="defs43">
                <path
                   id="DejaVuSans-34"
                   d="M 2419 4116  L 825 1625  L 2419 1625  L 2419 4116  z M 2253 4666  L 3047 4666  L 3047 1625  L 3713 1625  L 3713 1100  L 3047 1100  L 3047 0  L 2419 0  L 2419 1100  L 313 1100  L 313 1709  L 2253 4666  z "
                   transform="scale(0.015625)" />
              </defs>
              <use
                 xlink:href="#DejaVuSans-30"
                 id="use44" />
              <use
                 xlink:href="#DejaVuSans-2e"
                 x="63.623047"
                 id="use45" />
              <use
                 xlink:href="#DejaVuSans-34"
                 x="95.410156"
                 id="use46" />
            </g>
          </g>
        </g>
        <g
           id="ytick_4">
          <g
             id="line2d_7">
            <g
               id="g47">
              <use
                 xlink:href="#mcc65b74d3c"
                 x="47.81"
                 y="113.968"
                 style="stroke: #000000; stroke-width: 0.8"
                 id="use47" />
            </g>
          </g>
          <g
             id="text_8">
            <!-- 0.6 -->
            <g
               transform="translate(24.906875 117.767219) scale(0.1 -0.1)"
               id="g50">
              <defs
                 id="defs47">
                <path
                   id="DejaVuSans-36"
                   d="M 2113 2584  Q 1688 2584 1439 2293  Q 1191 2003 1191 1497  Q 1191 994 1439 701  Q 1688 409 2113 409  Q 2538 409 2786 701  Q 3034 994 3034 1497  Q 3034 2003 2786 2293  Q 2538 2584 2113 2584  z M 3366 4563  L 3366 3988  Q 3128 4100 2886 4159  Q 2644 4219 2406 4219  Q 1781 4219 1451 3797  Q 1122 3375 1075 2522  Q 1259 2794 1537 2939  Q 1816 3084 2150 3084  Q 2853 3084 3261 2657  Q 3669 2231 3669 1497  Q 3669 778 3244 343  Q 2819 -91 2113 -91  Q 1303 -91 875 529  Q 447 1150 447 2328  Q 447 3434 972 4092  Q 1497 4750 2381 4750  Q 2619 4750 2861 4703  Q 3103 4656 3366 4563  z "
                   transform="scale(0.015625)" />
              </defs>
              <use
                 xlink:href="#DejaVuSans-30"
                 id="use48" />
              <use
                 xlink:href="#DejaVuSans-2e"
                 x="63.623047"
                 id="use49" />
              <use
                 xlink:href="#DejaVuSans-36"
                 x="95.410156"
                 id="use50" />
            </g>
          </g>
        </g>
        <g
           id="ytick_5">
          <g
             id="line2d_8">
            <g
               id="g51">
              <use
                 xlink:href="#mcc65b74d3c"
                 x="47.81"
                 y="69.944"
                 style="stroke: #000000; stroke-width: 0.8"
                 id="use51" />
            </g>
          </g>
          <g
             id="text_9">
            <!-- 0.8 -->
            <g
               transform="translate(24.906875 73.743219) scale(0.1 -0.1)"
               id="g54">
              <defs
                 id="defs51">
                <path
                   id="DejaVuSans-38"
                   d="M 2034 2216  Q 1584 2216 1326 1975  Q 1069 1734 1069 1313  Q 1069 891 1326 650  Q 1584 409 2034 409  Q 2484 409 2743 651  Q 3003 894 3003 1313  Q 3003 1734 2745 1975  Q 2488 2216 2034 2216  z M 1403 2484  Q 997 2584 770 2862  Q 544 3141 544 3541  Q 544 4100 942 4425  Q 1341 4750 2034 4750  Q 2731 4750 3128 4425  Q 3525 4100 3525 3541  Q 3525 3141 3298 2862  Q 3072 2584 2669 2484  Q 3125 2378 3379 2068  Q 3634 1759 3634 1313  Q 3634 634 3220 271  Q 2806 -91 2034 -91  Q 1263 -91 848 271  Q 434 634 434 1313  Q 434 1759 690 2068  Q 947 2378 1403 2484  z M 1172 3481  Q 1172 3119 1398 2916  Q 1625 2713 2034 2713  Q 2441 2713 2670 2916  Q 2900 3119 2900 3481  Q 2900 3844 2670 4047  Q 2441 4250 2034 4250  Q 1625 4250 1398 4047  Q 1172 3844 1172 3481  z "
                   transform="scale(0.015625)" />
              </defs>
              <use
                 xlink:href="#DejaVuSans-30"
                 id="use52" />
              <use
                 xlink:href="#DejaVuSans-2e"
                 x="63.623047"
                 id="use53" />
              <use
                 xlink:href="#DejaVuSans-38"
                 x="95.410156"
                 id="use54" />
            </g>
          </g>
        </g>
        <g
           id="ytick_6">
          <g
             id="line2d_9">
            <g
               id="g55">
              <use
                 xlink:href="#mcc65b74d3c"
                 x="47.81"
                 y="25.92"
                 style="stroke: #000000; stroke-width: 0.8"
                 id="use55" />
            </g>
          </g>
          <g
             id="text_10">
            <!-- 1.0 -->
            <g
               transform="translate(24.906875 29.719219) scale(0.1 -0.1)"
               id="g58">
              <defs
                 id="defs55">
                <path
                   id="DejaVuSans-31"
                   d="M 794 531  L 1825 531  L 1825 4091  L 703 3866  L 703 4441  L 1819 4666  L 2450 4666  L 2450 531  L 3481 531  L 3481 0  L 794 0  L 794 531  z "
                   transform="scale(0.015625)" />
              </defs>
              <use
                 xlink:href="#DejaVuSans-31"
                 id="use56" />
              <use
                 xlink:href="#DejaVuSans-2e"
                 x="63.623047"
                 id="use57" />
              <use
                 xlink:href="#DejaVuSans-30"
                 x="95.410156"
                 id="use58" />
            </g>
          </g>
        </g>
        <g
           id="text_11">
          <!-- Accuracy -->
          <g
             transform="translate(18.827187 158.808125) rotate(-90) scale(0.1 -0.1)"
             id="g66">
            <defs
               id="defs58">
              <path
                 id="DejaVuSans-41"
                 d="M 2188 4044  L 1331 1722  L 3047 1722  L 2188 4044  z M 1831 4666  L 2547 4666  L 4325 0  L 3669 0  L 3244 1197  L 1141 1197  L 716 0  L 50 0  L 1831 4666  z "
                 transform="scale(0.015625)" />
              <path
                 id="DejaVuSans-63"
                 d="M 3122 3366  L 3122 2828  Q 2878 2963 2633 3030  Q 2388 3097 2138 3097  Q 1578 3097 1268 2742  Q 959 2388 959 1747  Q 959 1106 1268 751  Q 1578 397 2138 397  Q 2388 397 2633 464  Q 2878 531 3122 666  L 3122 134  Q 2881 22 2623 -34  Q 2366 -91 2075 -91  Q 1284 -91 818 406  Q 353 903 353 1747  Q 353 2603 823 3093  Q 1294 3584 2113 3584  Q 2378 3584 2631 3529  Q 2884 3475 3122 3366  z "
                 transform="scale(0.015625)" />
              <path
                 id="DejaVuSans-75"
                 d="M 544 1381  L 544 3500  L 1119 3500  L 1119 1403  Q 1119 906 1312 657  Q 1506 409 1894 409  Q 2359 409 2629 706  Q 2900 1003 2900 1516  L 2900 3500  L 3475 3500  L 3475 0  L 2900 0  L 2900 538  Q 2691 219 2414 64  Q 2138 -91 1772 -91  Q 1169 -91 856 284  Q 544 659 544 1381  z M 1991 3584  L 1991 3584  z "
                 transform="scale(0.015625)" />
            </defs>
            <use
               xlink:href="#DejaVuSans-41"
               id="use59" />
            <use
               xlink:href="#DejaVuSans-63"
               x="66.658203"
               id="use60" />
            <use
               xlink:href="#DejaVuSans-63"
               x="121.638672"
               id="use61" />
            <use
               xlink:href="#DejaVuSans-75"
               x="176.619141"
               id="use62" />
            <use
               xlink:href="#DejaVuSans-72"
               x="239.998047"
               id="use63" />
            <use
               xlink:href="#DejaVuSans-61"
               x="281.111328"
               id="use64" />
            <use
               xlink:href="#DejaVuSans-63"
               x="342.390625"
               id="use65" />
            <use
               xlink:href="#DejaVuSans-79"
               x="397.371094"
               id="use66" />
          </g>
        </g>
      </g>
      <g
         id="line2d_10">
        <path
           d="M 56.072727 162.339913  L 103.288312 162.339913  L 103.288312 119.133206  L 56.072727 119.133206  L 56.072727 162.339913  "
           clip-path="url(#p65bed81633)"
           style="fill: none; stroke: #000000; stroke-width: 1.5; stroke-linecap: square"
           id="path66" />
      </g>
      <g
         id="line2d_11">
        <path
           d="M 79.680519 162.339913  L 79.680519 182.08923  "
           clip-path="url(#p65bed81633)"
           style="fill: none; stroke: #000000; stroke-width: 1.5"
           id="path67" />
      </g>
      <g
         id="line2d_12">
        <path
           d="M 79.680519 119.133206  L 79.680519 69.026833  "
           clip-path="url(#p65bed81633)"
           style="fill: none; stroke: #000000; stroke-width: 1.5"
           id="path68" />
      </g>
      <g
         id="line2d_13">
        <path
           d="M 67.876623 182.08923  L 91.484416 182.08923  "
           clip-path="url(#p65bed81633)"
           style="fill: none; stroke: #000000; stroke-width: 1.5; stroke-linecap: square"
           id="path69" />
      </g>
      <g
         id="line2d_14">
        <path
           d="M 67.876623 69.026833  L 91.484416 69.026833  "
           clip-path="url(#p65bed81633)"
           style="fill: none; stroke: #000000; stroke-width: 1.5; stroke-linecap: square"
           id="path70" />
      </g>
      <g
         id="line2d_15">
        <defs
           id="defs70">
          <path
             id="mc71e64eaac"
             d="M 0 3  C 0.795609 3 1.55874 2.683901 2.12132 2.12132  C 2.683901 1.55874 3 0.795609 3 0  C 3 -0.795609 2.683901 -1.55874 2.12132 -2.12132  C 1.55874 -2.683901 0.795609 -3 0 -3  C -0.795609 -3 -1.55874 -2.683901 -2.12132 -2.12132  C -2.683901 -1.55874 -3 -0.795609 -3 0  C -3 0.795609 -2.683901 1.55874 -2.12132 2.12132  C -1.55874 2.683901 -0.795609 3 0 3  z "
             style="stroke: #000000" />
        </defs>
        <g
           clip-path="url(#p65bed81633)"
           id="g70">
          <use
             xlink:href="#mc71e64eaac"
             x="79.680519"
             y="49.649248"
             style="fill-opacity: 0; stroke: #000000"
             id="use70" />
        </g>
      </g>
      <g
         id="line2d_16">
        <path
           d="M 115.092208 112.720951  L 162.307792 112.720951  L 162.307792 46.780663  L 115.092208 46.780663  L 115.092208 112.720951  "
           clip-path="url(#p65bed81633)"
           style="fill: none; stroke: #000000; stroke-width: 1.5; stroke-linecap: square"
           id="path71" />
      </g>
      <g
         id="line2d_17">
        <path
           d="M 138.7 112.720951  L 138.7 158.480703  "
           clip-path="url(#p65bed81633)"
           style="fill: none; stroke: #000000; stroke-width: 1.5"
           id="path72" />
      </g>
      <g
         id="line2d_18">
        <path
           d="M 138.7 46.780663  L 138.7 32.847535  "
           clip-path="url(#p65bed81633)"
           style="fill: none; stroke: #000000; stroke-width: 1.5"
           id="path73" />
      </g>
      <g
         id="line2d_19">
        <path
           d="M 126.896104 158.480703  L 150.503896 158.480703  "
           clip-path="url(#p65bed81633)"
           style="fill: none; stroke: #000000; stroke-width: 1.5; stroke-linecap: square"
           id="path74" />
      </g>
      <g
         id="line2d_20">
        <path
           d="M 126.896104 32.847535  L 150.503896 32.847535  "
           clip-path="url(#p65bed81633)"
           style="fill: none; stroke: #000000; stroke-width: 1.5; stroke-linecap: square"
           id="path75" />
      </g>
      <g
         id="line2d_21" />
      <g
         id="line2d_22">
        <path
           d="M 174.111688 77.169127  L 221.327273 77.169127  L 221.327273 46.409894  L 174.111688 46.409894  L 174.111688 77.169127  "
           clip-path="url(#p65bed81633)"
           style="fill: none; stroke: #000000; stroke-width: 1.5; stroke-linecap: square"
           id="path76" />
      </g>
      <g
         id="line2d_23">
        <path
           d="M 197.719481 77.169127  L 197.719481 116.129385  "
           clip-path="url(#p65bed81633)"
           style="fill: none; stroke: #000000; stroke-width: 1.5"
           id="path77" />
      </g>
      <g
         id="line2d_24">
        <path
           d="M 197.719481 46.409894  L 197.719481 30.505833  "
           clip-path="url(#p65bed81633)"
           style="fill: none; stroke: #000000; stroke-width: 1.5"
           id="path78" />
      </g>
      <g
         id="line2d_25">
        <path
           d="M 185.915584 116.129385  L 209.523377 116.129385  "
           clip-path="url(#p65bed81633)"
           style="fill: none; stroke: #000000; stroke-width: 1.5; stroke-linecap: square"
           id="path79" />
      </g>
      <g
         id="line2d_26">
        <path
           d="M 185.915584 30.505833  L 209.523377 30.505833  "
           clip-path="url(#p65bed81633)"
           style="fill: none; stroke: #000000; stroke-width: 1.5; stroke-linecap: square"
           id="path80" />
      </g>
      <g
         id="line2d_27">
        <g
           clip-path="url(#p65bed81633)"
           id="g80">
          <use
             xlink:href="#mc71e64eaac"
             x="197.719481"
             y="181.439565"
             style="fill-opacity: 0; stroke: #000000"
             id="use80" />
        </g>
      </g>
      <g
         id="line2d_28">
        <path
           d="M 79.680519 114.650543  L 138.7 58.844926  L 197.719481 46.995319  "
           clip-path="url(#p65bed81633)"
           style="fill: none; stroke: #808080; stroke-width: 0.3; stroke-linecap: square"
           id="path81" />
      </g>
      <g
         id="line2d_29">
        <path
           d="M 79.680519 154.323333  L 138.7 107.879574  L 197.719481 100.220257  "
           clip-path="url(#p65bed81633)"
           style="fill: none; stroke: #808080; stroke-width: 0.3; stroke-linecap: square"
           id="path82" />
      </g>
      <g
         id="line2d_30">
        <path
           d="M 79.680519 168.969561  L 138.7 101.58625  L 197.719481 58.459902  "
           clip-path="url(#p65bed81633)"
           style="fill: none; stroke: #808080; stroke-width: 0.3; stroke-linecap: square"
           id="path83" />
      </g>
      <g
         id="line2d_31">
        <path
           d="M 79.680519 132.285314  L 138.7 72.754043  L 197.719481 69.485417  "
           clip-path="url(#p65bed81633)"
           style="fill: none; stroke: #808080; stroke-width: 0.3; stroke-linecap: square"
           id="path84" />
      </g>
      <g
         id="line2d_32">
        <path
           d="M 79.680519 168.254764  L 138.7 88.560532  L 197.719481 51.678723  "
           clip-path="url(#p65bed81633)"
           style="fill: none; stroke: #808080; stroke-width: 0.3; stroke-linecap: square"
           id="path85" />
      </g>
      <g
         id="line2d_33">
        <path
           d="M 79.680519 49.649248  L 138.7 44.263333  L 197.719481 44.653617  "
           clip-path="url(#p65bed81633)"
           style="fill: none; stroke: #808080; stroke-width: 0.3; stroke-linecap: square"
           id="path86" />
      </g>
      <g
         id="line2d_34">
        <path
           d="M 79.680519 160.368295  L 138.7 128.125541  L 197.719481 49.093094  "
           clip-path="url(#p65bed81633)"
           style="fill: none; stroke: #808080; stroke-width: 0.3; stroke-linecap: square"
           id="path87" />
      </g>
      <g
         id="line2d_35">
        <path
           d="M 79.680519 69.026833  L 138.7 38.282009  L 197.719481 30.505833  "
           clip-path="url(#p65bed81633)"
           style="fill: none; stroke: #808080; stroke-width: 0.3; stroke-linecap: square"
           id="path88" />
      </g>
      <g
         id="line2d_36">
        <path
           d="M 79.680519 120.627428  L 138.7 32.847535  L 197.719481 49.693367  "
           clip-path="url(#p65bed81633)"
           style="fill: none; stroke: #808080; stroke-width: 0.3; stroke-linecap: square"
           id="path89" />
      </g>
      <g
         id="line2d_37">
        <path
           d="M 79.680519 182.08923  L 138.7 158.480703  L 197.719481 181.439565  "
           clip-path="url(#p65bed81633)"
           style="fill: none; stroke: #808080; stroke-width: 0.3; stroke-linecap: square"
           id="path90" />
      </g>
      <g
         id="line2d_38">
        <path
           d="M 79.680519 151.849116  L 138.7 127.245079  L 197.719481 116.129385  "
           clip-path="url(#p65bed81633)"
           style="fill: none; stroke: #808080; stroke-width: 0.3; stroke-linecap: square"
           id="path91" />
      </g>
      <g
         id="line2d_39">
        <path
           d="M 79.680519 138.907128  L 138.7 47.619773  L 197.719481 35.238023  "
           clip-path="url(#p65bed81633)"
           style="fill: none; stroke: #808080; stroke-width: 0.3; stroke-linecap: square"
           id="path92" />
      </g>
      <g
         id="line2d_40">
        <path
           d="M 56.072727 145.378122  L 103.288312 145.378122  "
           clip-path="url(#p65bed81633)"
           style="fill: none; stroke: #000000; stroke-width: 1.5"
           id="path93" />
      </g>
      <g
         id="line2d_41">
        <path
           d="M 115.092208 80.657287  L 162.307792 80.657287  "
           clip-path="url(#p65bed81633)"
           style="fill: none; stroke: #000000; stroke-width: 1.5"
           id="path94" />
      </g>
      <g
         id="line2d_42">
        <path
           d="M 174.111688 50.686045  L 221.327273 50.686045  "
           clip-path="url(#p65bed81633)"
           style="fill: none; stroke: #000000; stroke-width: 1.5"
           id="path95" />
      </g>
      <g
         id="patch_3">
        <path
           d="M 47.81 246.04  L 47.81 25.92  "
           style="fill: none; stroke: #000000; stroke-width: 0.8; stroke-linejoin: miter; stroke-linecap: square"
           id="path96" />
      </g>
      <g
         id="patch_4">
        <path
           d="M 229.59 246.04  L 229.59 25.92  "
           style="fill: none; stroke: #000000; stroke-width: 0.8; stroke-linejoin: miter; stroke-linecap: square"
           id="path97" />
      </g>
      <g
         id="patch_5">
        <path
           d="M 47.81 246.04  L 229.59 246.04  "
           style="fill: none; stroke: #000000; stroke-width: 0.8; stroke-linejoin: miter; stroke-linecap: square"
           id="path98" />
      </g>
      <g
         id="patch_6">
        <path
           d="M 47.81 25.92  L 229.59 25.92  "
           style="fill: none; stroke: #000000; stroke-width: 0.8; stroke-linejoin: miter; stroke-linecap: square"
           id="path99" />
      </g>
      <g
         id="text_12">
        <!-- Accuracy per learning stage -->
        <g
           transform="translate(54.484375 19.92) scale(0.12 -0.12)"
           id="g125">
          <defs
             id="defs99">
            <path
               id="DejaVuSans-70"
               d="M 1159 525  L 1159 -1331  L 581 -1331  L 581 3500  L 1159 3500  L 1159 2969  Q 1341 3281 1617 3432  Q 1894 3584 2278 3584  Q 2916 3584 3314 3078  Q 3713 2572 3713 1747  Q 3713 922 3314 415  Q 2916 -91 2278 -91  Q 1894 -91 1617 61  Q 1341 213 1159 525  z M 3116 1747  Q 3116 2381 2855 2742  Q 2594 3103 2138 3103  Q 1681 3103 1420 2742  Q 1159 2381 1159 1747  Q 1159 1113 1420 752  Q 1681 391 2138 391  Q 2594 391 2855 752  Q 3116 1113 3116 1747  z "
               transform="scale(0.015625)" />
          </defs>
          <use
             xlink:href="#DejaVuSans-41"
             id="use99" />
          <use
             xlink:href="#DejaVuSans-63"
             x="66.658203"
             id="use100" />
          <use
             xlink:href="#DejaVuSans-63"
             x="121.638672"
             id="use101" />
          <use
             xlink:href="#DejaVuSans-75"
             x="176.619141"
             id="use102" />
          <use
             xlink:href="#DejaVuSans-72"
             x="239.998047"
             id="use103" />
          <use
             xlink:href="#DejaVuSans-61"
             x="281.111328"
             id="use104" />
          <use
             xlink:href="#DejaVuSans-63"
             x="342.390625"
             id="use105" />
          <use
             xlink:href="#DejaVuSans-79"
             x="397.371094"
             id="use106" />
          <use
             xlink:href="#DejaVuSans-20"
             x="456.550781"
             id="use107" />
          <use
             xlink:href="#DejaVuSans-70"
             x="488.337891"
             id="use108" />
          <use
             xlink:href="#DejaVuSans-65"
             x="551.814453"
             id="use109" />
          <use
             xlink:href="#DejaVuSans-72"
             x="613.337891"
             id="use110" />
          <use
             xlink:href="#DejaVuSans-20"
             x="654.451172"
             id="use111" />
          <use
             xlink:href="#DejaVuSans-6c"
             x="686.238281"
             id="use112" />
          <use
             xlink:href="#DejaVuSans-65"
             x="714.021484"
             id="use113" />
          <use
             xlink:href="#DejaVuSans-61"
             x="775.544922"
             id="use114" />
          <use
             xlink:href="#DejaVuSans-72"
             x="836.824219"
             id="use115" />
          <use
             xlink:href="#DejaVuSans-6e"
             x="876.1875"
             id="use116" />
          <use
             xlink:href="#DejaVuSans-69"
             x="939.566406"
             id="use117" />
          <use
             xlink:href="#DejaVuSans-6e"
             x="967.349609"
             id="use118" />
          <use
             xlink:href="#DejaVuSans-67"
             x="1030.728516"
             id="use119" />
          <use
             xlink:href="#DejaVuSans-20"
             x="1094.205078"
             id="use120" />
          <use
             xlink:href="#DejaVuSans-73"
             x="1125.992188"
             id="use121" />
          <use
             xlink:href="#DejaVuSans-74"
             x="1178.091797"
             id="use122" />
          <use
             xlink:href="#DejaVuSans-61"
             x="1217.300781"
             id="use123" />
          <use
             xlink:href="#DejaVuSans-67"
             x="1278.580078"
             id="use124" />
          <use
             xlink:href="#DejaVuSans-65"
             x="1342.056641"
             id="use125" />
        </g>
      </g>
    </g>
  </g>
  <defs
     id="defs1053">
    <clipPath
       id="p65bed81633">
      <rect
         x="47.81"
         y="25.92"
         width="181.78"
         height="220.12"
         id="rect1047" />
    </clipPath>
    <clipPath
       id="pa479b26637">
      <rect
         x="271.55"
         y="37.192712"
         width="69.91"
         height="69.91"
         id="rect1048" />
    </clipPath>
    <clipPath
       id="p3d154e50a5">
      <rect
         x="383.42"
         y="37.192712"
         width="69.91"
         height="69.91"
         id="rect1049" />
    </clipPath>
    <clipPath
       id="p6e957341da">
      <rect
         x="495.29"
         y="37.192712"
         width="69.91"
         height="69.91"
         id="rect1050" />
    </clipPath>
    <clipPath
       id="p51915b860b">
      <rect
         x="271.55"
         y="164.857288"
         width="69.91"
         height="69.91"
         id="rect1051" />
    </clipPath>
    <clipPath
       id="p0899ed32e7">
      <rect
         x="383.42"
         y="164.857288"
         width="69.91"
         height="69.91"
         id="rect1052" />
    </clipPath>
    <clipPath
       id="pc2e5fb34c5">
      <rect
         x="495.29"
         y="164.857288"
         width="69.91"
         height="69.91"
         id="rect1053" />
    </clipPath>
  </defs>
</svg>
